<svg width="150" height="150" viewBox="0 0 150 150" fill="none" xmlns="http://www.w3.org/2000/svg">
<g clip-path="url(#clip0_466_309)">
<path d="M39.9902 59.1164C38.6985 58.151 37.4035 57.6682 36.1117 57.6682H30.3056V92.4483H36.1151C37.4068 92.4483 38.7018 91.9656 39.9936 91.0001C41.2853 90.0346 41.9312 88.5864 41.9312 86.6522V63.4644C41.9278 61.5334 41.2786 60.0819 39.9902 59.1164ZM134.533 0.426147H14.6151C6.55851 0.426147 0.0199751 6.94803 0 15.008V134.992C0.0199751 143.052 6.55851 149.574 14.6151 149.574H134.533C142.593 149.574 149.128 143.052 149.148 134.992V15.008C149.128 6.94803 142.589 0.426147 134.533 0.426147ZM51.3361 86.7154C51.3361 92.9776 47.4709 102.466 35.2361 102.446H19.7887V47.3611H35.5624C47.3611 47.3611 51.3295 56.8359 51.3328 63.1015L51.3361 86.7154ZM84.8544 57.1988H67.1165V69.9896H77.9596V79.834H67.1165V92.6214H84.8577V102.466H64.1568C60.4415 102.562 57.352 99.626 57.2587 95.9107V54.2592C57.1689 50.5471 60.1085 47.4643 63.8206 47.3711H84.8577L84.8544 57.1988ZM119.358 95.5811C114.964 105.818 107.09 103.781 103.564 95.5811L90.7371 47.3744H101.58L111.471 85.2339L121.316 47.3744H132.162L119.358 95.5811Z" fill="url(#paint0_linear_466_309)"/>
</g>
<defs>
<linearGradient id="paint0_linear_466_309" x1="74.5739" y1="149.574" x2="74.5739" y2="0.426147" gradientUnits="userSpaceOnUse">
<stop stop-color="#F76B15"/>
<stop offset="1" stop-color="#FFC53D"/>
</linearGradient>
<clipPath id="clip0_466_309">
<rect width="150" height="150" fill="white"/>
</clipPath>
</defs>
</svg>
